<?xml version="1.0" standalone="no"?>
<!DOCTYPE svg PUBLIC "-//W3C//DTD SVG 20010904//EN"
 "http://www.w3.org/TR/2001/REC-SVG-20010904/DTD/svg10.dtd">
<svg version="1.0" xmlns="http://www.w3.org/2000/svg"
 width="512.000000pt" height="512.000000pt" viewBox="0 0 512.000000 512.000000"
 preserveAspectRatio="xMidYMid meet">

<g transform="translate(0.000000,512.000000) scale(0.100000,-0.100000)"
fill="#000000" stroke="none">
<path d="M3402 5105 c-18 -8 -69 -40 -113 -71 -91 -64 -70 -62 -254 -20 -227
52 -566 72 -800 46 -866 -95 -1618 -632 -1965 -1401 -45 -100 -49 -140 -20
-169 11 -11 20 -23 20 -26 0 -3 -12 -44 -26 -90 -23 -76 -28 -84 -50 -84 -48
0 -69 -37 -92 -161 -91 -485 -28 -983 178 -1416 60 -126 80 -148 129 -141 25
4 33 -5 90 -94 60 -93 62 -99 47 -120 -27 -38 -18 -64 46 -144 127 -157 341
-354 516 -473 l58 -39 38 -183 c21 -101 44 -195 51 -210 23 -44 72 -77 143
-98 423 -124 735 -211 758 -211 59 1 108 36 246 178 l137 142 58 0 c81 0 289
25 405 49 211 44 419 116 614 214 93 46 113 61 122 86 6 16 8 38 5 49 -4 16
10 29 68 67 l72 47 33 -18 c26 -14 38 -16 56 -7 84 38 364 312 486 474 318
424 481 912 482 1439 l0 96 50 49 c60 59 80 99 80 157 0 55 -103 409 -136 465
-24 42 -89 83 -132 83 -29 0 -32 4 -115 170 -82 165 -156 279 -270 423 -92
115 -255 279 -356 357 l-70 55 -1 100 c-1 195 -13 211 -282 345 -211 106 -239
114 -306 85z m247 -225 l178 -90 6 -67 c4 -38 7 -100 7 -139 0 -41 5 -77 13
-86 6 -9 48 -45 92 -79 121 -96 275 -248 275 -273 -1 -12 -14 -54 -29 -94 -82
-208 -242 -382 -441 -482 -180 -90 -254 -100 -792 -100 l-427 0 -20 -26 c-27
-34 -27 -64 0 -98 l20 -26 467 0 c417 0 477 2 557 19 327 68 594 277 748 586
l43 87 69 -103 c38 -56 95 -153 127 -216 l58 -113 0 -197 c-1 -173 -10 -299
-36 -475 l-6 -46 -267 -5 c-226 -4 -278 -7 -346 -25 -180 -46 -318 -123 -470
-261 -169 -153 -297 -221 -483 -257 -61 -12 -299 -14 -1407 -14 -1261 0 -1334
1 -1339 18 -25 82 -41 501 -23 594 l8 37 382 3 c368 3 384 4 437 26 116 47
209 142 249 258 20 54 23 79 19 158 -3 80 -8 102 -37 160 -42 85 -112 155
-198 198 l-67 33 -255 5 -254 5 77 115 c96 141 134 188 255 313 l95 97 62 0
c86 0 247 17 389 41 512 86 1050 280 1349 486 l80 55 91 -16 c49 -9 140 -30
202 -46 61 -17 120 -27 129 -23 10 4 65 40 123 80 57 40 106 73 108 73 2 0 84
-40 182 -90z m-1204 -22 c-281 -142 -623 -256 -986 -328 -108 -21 -312 -50
-317 -45 -7 6 176 120 281 175 319 166 674 256 1017 258 l125 1 -120 -61z
m2336 -2152 c2 -2 3 -49 1 -104 l-3 -100 -372 -4 c-362 -5 -375 -5 -469 -31
-177 -47 -322 -127 -460 -254 -141 -131 -234 -188 -388 -240 l-85 -28 -1331
-3 -1331 -2 -30 97 -30 98 1341 6 c1489 6 1385 1 1578 73 121 46 229 114 340
213 112 102 187 155 282 198 69 32 205 70 276 78 49 5 676 8 681 3z m-890
-1185 c-17 -21 -79 -84 -137 -140 -430 -411 -944 -663 -1529 -752 -242 -37
-594 -36 -826 2 l-66 11 -13 67 c-18 91 -16 88 -79 128 -68 43 -235 168 -251
189 -11 12 77 14 681 14 l694 -1 28 -44 c49 -77 157 -114 248 -84 49 17 98 56
116 94 l15 32 112 6 c258 12 470 105 678 295 105 96 177 145 278 189 41 18 77
33 78 33 2 0 -10 -18 -27 -39z"/>
<path d="M3329 4801 c-37 -38 -37 -62 4 -107 65 -75 211 -147 322 -159 52 -6
63 -4 88 15 21 17 27 30 27 59 0 52 -26 72 -102 83 -74 10 -144 41 -217 97
-30 22 -63 41 -74 41 -10 0 -32 -13 -48 -29z"/>
<path d="M2664 4607 c-20 -17 -27 -33 -27 -57 0 -35 39 -80 69 -80 29 0 74 31
80 55 10 39 -4 73 -36 90 -39 20 -54 19 -86 -8z"/>
<path d="M2532 4450 c-29 -27 -29 -83 -2 -110 46 -46 130 -9 130 56 0 63 -81
97 -128 54z"/>
<path d="M1585 4141 c-183 -48 -281 -250 -201 -414 73 -150 247 -210 394 -136
70 35 105 71 140 148 21 46 24 64 20 131 -5 86 -29 139 -90 197 -62 60 -185
95 -263 74z"/>
<path d="M3552 4140 c-56 -13 -110 -58 -138 -116 -36 -73 -31 -154 12 -217 34
-49 119 -97 173 -97 125 0 222 95 222 216 0 146 -128 248 -269 214z"/>
<path d="M1973 3405 c-328 -89 -432 -479 -191 -716 52 -50 144 -96 227 -111
172 -32 364 71 444 239 30 64 32 75 32 178 0 103 -2 114 -32 178 -87 183 -293
282 -480 232z"/>
<path d="M2742 3177 c-29 -31 -29 -77 1 -105 22 -21 32 -22 216 -22 106 0 200
4 211 10 43 23 40 116 -5 134 -9 3 -103 6 -209 6 -188 0 -193 -1 -214 -23z"/>
<path d="M2735 2955 c-40 -39 -32 -96 16 -121 81 -41 154 64 85 123 -35 30
-71 29 -101 -2z"/>
<path d="M2203 910 c-67 -27 -52 -132 22 -146 74 -14 118 88 59 135 -29 23
-46 25 -81 11z"/>
</g>
</svg>
